<?xml version="1.0" encoding="iso-8859-1"?>
<!-- Generator: Adobe Illustrator 18.0.0, SVG Export Plug-In . SVG Version: 6.00 Build 0)  -->
<!DOCTYPE svg PUBLIC "-//W3C//DTD SVG 1.1//EN" "http://www.w3.org/Graphics/SVG/1.1/DTD/svg11.dtd">
<svg version="1.1" id="Capa_1" xmlns="http://www.w3.org/2000/svg" xmlns:xlink="http://www.w3.org/1999/xlink" x="0px" y="0px"
	 viewBox="0 0 264.828 264.828" style="enable-background:new 0 0 264.828 264.828;" xml:space="preserve">
<g>
	<path d="M200.84,102.776c4.456,3.518,8.236-5.565,8.527-8.855c0.309-3.485-1.418-7.506-4.32-8.536
		c4.176-6.792-0.988-15.498-8.269-15.722c1.075-2.909,0.344-6.867-1.274-9.059c-1.457-1.975-4.152-3.471-6.797-3.675
		c2.868-7.242,2.276-18.761-5.672-18.387c3.878-10.059,7.928-20.053,12.227-30.06c0.242-0.117,0.453-0.312,0.514-0.571
		c0.061-0.263,0.058-0.521,0.056-0.78c0.2-0.461,0.383-0.923,0.583-1.384c0.457-1.054-0.782-1.901-1.516-1.181
		c-0.999-1.408-2.582-2.588-3.857-3.267c-2.783-1.483-5.947-1.707-8.895-0.617c-0.001,0-0.002-0.001-0.002-0.001
		c-0.003,0.001-0.004,0.002-0.004,0.002c-0.073,0.027-0.148,0.032-0.219,0.06c-0.082,0.033-0.099,0.109-0.165,0.153
		c-1.153,0.598-1.246,1.597-0.815,2.666c-3.452,8.652-6.609,17.483-9.595,26.378c-4.129-3.09-11.312-0.376-14.535,2.801
		c-2.681,2.644-4.041,6.081-4.444,9.679c-2.253-2.562-5.521-4.315-8.912-4.518c-4.231-0.253-7.951,1.765-10.355,4.869
		c-3.419-5.976-11.095-9.2-18.053-6.899c-8.376,2.77-12.487,12.357-8.965,20.092c-4.788,0.147-9.571,2.519-11.766,6.919
		c-2.185,4.381-0.933,9.863,3.001,12.655C80.914,74.228,65.64,84.293,60.54,99.461c-2.898-0.208-4.707,2.774-4.43,5.476
		c-0.333,0.148-0.613,0.41-0.631,0.93c-1.438,43.737,25.815,79.419,68.484,83.505c-1.692,15.224-2.29,31.698-1.639,47.263
		c-7.558-0.121-15.445,5.228-19.072,11.608c-1.608,2.828-2.409,6.42-0.613,9.368c1.344,2.207,3.763,3.542,6.144,2.531
		c5.942,4.127,13.162,4.721,20.66,4.683c8.263-0.041,21.793-0.085,27.905-6.661c3.907-4.204,3.59-10.215,0.434-14.839
		c-4.299-6.299-12.247-7.702-19.439-7.654c-0.623-15.3-1.937-30.722-2.918-45.978c1.482-0.037,2.948-0.037,4.468-0.163
		c42.848-3.57,67.949-42.159,62.443-82.766c-0.133-0.981-0.783-1.389-1.509-1.442c0.091-0.844,0.027-1.7,0.009-2.552
		C200.838,102.772,200.838,102.775,200.84,102.776z M183.603,2.483c2.214-0.33,4.451,0.104,6.39,1.313
		c1.412,0.881,2.165,2.276,3.146,3.451c-1.799-0.361-3.631-0.285-5.415-1.074c-0.556-0.246-3.311-1.83-4.299-3.089
		C183.48,2.884,183.542,2.683,183.603,2.483z M182.555,6.004c0.463,0.513,0.928,0.955,1.277,1.234
		c1.884,1.506,5.069,3.03,7.828,2.876c-3.46,6.299-6.536,12.899-9.406,19.604c-0.906-0.81-1.762-1.664-2.466-2.774
		c-1.134-1.787-1.623-3.688-1.915-5.71C179.514,16.171,181.088,11.093,182.555,6.004z M176.431,25.498
		c0.828,2.784,2.408,5.437,4.603,7.088c-1.766,4.287-3.377,8.636-4.89,13.009c-0.638-0.638-1.283-1.272-1.777-2.057
		c-1.185-1.88-1.785-3.895-2.135-6.038C173.646,33.505,175.091,29.518,176.431,25.498z M174.99,48.897
		c-1.835,5.589-3.438,11.227-4.756,16.882c-0.861-1.297-2.075-2.321-3.916-2.641c-1.266-0.22-2.719-0.019-3.827,0.695
		c2.84-7.301,5.589-14.689,8.265-22.115C171.499,44.529,172.911,47.304,174.99,48.897z M95.299,79.065
		c17.782,0.466,35.936,16.665,35.605,34.991c-2.301-0.039-4.601-0.08-6.831-0.11c-20.85-0.28-43.794-0.377-63.335-8.201
		C65.358,90.541,78.769,78.631,95.299,79.065z M136.006,242.633c0.299,1.469,2.639,1.129,2.602-0.352
		c-0.025-0.996-0.088-1.998-0.12-2.996c5.194,0.149,11.599,0.4,14.939,4.536c11.857,14.68-11.899,16.562-16.875,17.054
		c-9.623,0.952-21.192,1.451-29.448-4.292c-1.559-1.41-2.093-3.307-0.873-5.854c1.021-2.133,2.737-4.014,4.484-5.584
		c3.524-3.169,7.426-4.646,11.713-6.205c0.092,1.81,0.12,3.669,0.249,5.446c0.124,1.718,2.478,1.687,2.649,0
		c1.782-17.616,1.749-37.115,0.287-54.894c2.483,0.189,5.011,0.282,7.578,0.285c-0.952,15.15-0.589,31.292,1.809,46.484
		c-0.71,0.762-0.522,2.013,0.408,2.586C135.629,240.1,135.755,241.397,136.006,242.633z M127.814,184.792
		c-18.698-1.731-35.518-8.969-49.051-21.827c-16.642-15.812-18.077-34.377-20.884-56.023c0.165-0.204,0.262-0.464,0.109-0.773
		c-1.082-2.191,0.208-3.762,1.933-4.637c-0.374,1.401-0.693,2.827-0.889,4.299c-0.048,0.355,0.162,0.553,0.422,0.665
		c-0.001,0.289,0.074,0.577,0.346,0.754c19.124,12.467,47.415,10.337,69.338,10.429c21.928,0.092,49.35,2.866,68.675-9.18
		c0.222-0.139,0.384-0.302,0.517-0.474C204.287,150.809,171.97,188.879,127.814,184.792z M200.729,100.59
		c-0.498-3.965-2.069-7.823-4.597-10.829c-0.421-0.5-0.974-0.597-1.494-0.475c-0.567-0.4-1.565-0.121-1.686,0.798
		c-0.098,0.745-0.375,1.319-0.57,1.974c-1.378,0.131-2.631,1.054-2.556,2.858c0.028,0.693-0.116,1.354-0.331,1.997
		c-4.792,4.211-13.094,2.791-16.645-4.084c-0.475-0.92-1.466-0.94-2.208-0.515c-0.354-0.612-1.412-0.808-1.839-0.05
		c-0.811,1.441-2.233,2.536-3.832,2.931c-0.282,0.002-0.518,0.096-0.781,0.137c-0.499,0.041-1.005,0.056-1.516-0.069
		c-2.402-0.587-3.652-2.834-4.141-5.088c0.45-0.01,0.897,0.016,1.353-0.084c1.402-0.308,1.07-2.48-0.335-2.475
		c-2.391,0.009-4.219-0.047-6.199-1.643c-0.934-0.752-2.221,0.449-1.346,1.346c0.844,0.864,1.856,1.518,2.929,2.028
		c-4.667,3.019-13.306,6.306-13.471-2.135c-0.019-0.959-1.064-1.583-1.909-1.095c-1.742,1.007-3.883-0.655-4.899-2.244
		c-0.07-0.166-0.175-0.282-0.293-0.413c-0.001-0.003-0.004-0.005-0.005-0.008c-0.012-0.023-0.036-0.023-0.049-0.045
		c-0.118-0.118-0.21-0.262-0.364-0.33c-0.189-0.079-0.396-0.091-0.596-0.029c-0.125,0.005-0.226-0.06-0.362-0.017
		c-3.083,0.963-5.123,3.922-6.104,7.086c-0.261,0.294-0.417,0.652-0.587,1.007c-7.021-8.201-17.522-14.168-26.878-15.479
		c-0.029-0.004-0.057,0-0.086-0.004c0.056-0.279,0.013-0.579-0.296-0.79c-3.931-2.676-4.216-8.655-1.2-12.162
		c2.54-2.953,6.351-3.708,10.064-3.872c0.358,0.214,0.727,0.19,1.005-0.044c0.234-0.004,0.473-0.03,0.705-0.031
		c1.369-0.002,1.706-2.094,0.328-2.425c-0.436-0.104-0.887-0.146-1.333-0.209c-2.359-7.046,0.088-15.022,7.998-17.234
		c6.74-1.885,11.922,1.959,14.511,7.558c-0.444,1.242-0.761,2.54-0.81,3.899c-0.032,0.854,1.35,1.069,1.515,0.205
		c0.082-0.424,0.222-0.837,0.35-1.253c0.068,0.243,0.169,0.471,0.228,0.717c0.34,1.423,2.521,1.097,2.526-0.342
		c0.005-1.528-0.302-2.947-0.745-4.301c2.044-2.664,5.136-4.486,8.652-4.273c5.781,0.348,8.462,5.357,9.811,10.27
		c0.122,0.443,0.5,0.688,0.915,0.821c0.446,0.618,1.338,0.334,1.431-0.436c0.082-0.126,0.205-0.209,0.233-0.386
		c0.281-1.772,0.046-3.5-0.544-5.106c0.048-4.037,0.991-8.072,3.866-11.021c1.67-1.713,3.922-2.951,6.292-3.348
		c2.005-0.337,3.765,0.255,5.637,0.615c-3.197,9.654-6.175,19.385-9.023,29.072c-0.824-1.233-2.042-2.211-3.554-2.526
		c-3.789-0.789-7.077,2.701-6.669,6.37c0.095,0.86,1.309,0.892,1.362,0c0.162-2.669,2.947-5.107,5.546-3.629
		c1.804,1.026,2.108,2.907,1.923,4.804c-0.062,0.638,0.515,0.978,1.076,0.973c0.175,0.285,0.441,0.526,0.818,0.692
		c0.736,0.325,1.704-0.618,0.95-1.232c-1.261-1.027,2.656-1.333,2.886-1.272c1.141,0.3,1.815,0.943,2.35,1.965
		c1.164,2.224,0.517,4.907,0.561,7.298c0.004,0.23,0.123,0.378,0.217,0.544c-1.648-0.577-3.324-1.088-4.966-1.607
		c-1.127-0.356-1.53,1.319-0.478,1.736c2.657,1.054,5.364,2.336,8.174,2.895c0.936,0.186,1.622-1.124,0.683-1.622
		c-0.329-0.174-0.688-0.292-1.038-0.427c1.349-4.824,7.578-4.305,8.619,0.835c0.268,1.324,2.174,0.924,2.248-0.304
		c0.222-3.651-2.886-6.907-6.604-6.846c-1.498,0.025-2.773,0.666-3.843,1.549c0.031-0.673-0.054-1.34-0.125-2.006
		c3.411-9.748,6.926-19.357,10.58-28.908c4.865,0.172,5.583,6.203,5.106,10.027c-0.328,2.628-1.385,4.745-2.487,6.97
		c-0.151,0.094-0.318,0.15-0.463,0.26c-0.338,0.257-0.391,0.761-0.183,1.081c-0.119,0.249-0.241,0.486-0.357,0.741
		c-0.598,1.319,0.877,2.551,2.019,1.558c0.605-0.525,1.152-1.234,1.656-2.037c2.192,0.105,4.233,0.669,5.713,2.731
		c0.904,1.26,1.238,2.895,1.101,4.421c-0.129,1.436-0.852,2.535-1.379,3.772c-0.419,0.162-0.839,0.372-1.262,0.595
		c-0.908-0.914-1.845-1.806-2.72-2.712c-0.671-0.696-1.61,0.317-1.037,1.036c0.721,0.903,1.428,1.871,2.154,2.82
		c-0.418,0.758,0.245,1.754,1.164,1.355c0.636,0.761,1.259,1.541,1.985,2.176c0.757,0.662,2.1-0.2,1.474-1.137
		c-0.439-0.656-1.012-1.228-1.538-1.831c0.088-0.028,0.173-0.038,0.26-0.063c0.324,0.116,0.68,0.152,1.015-0.024
		c0.131-0.069,0.216-0.18,0.337-0.259c7.174-0.806,12.456,8.379,5.541,13.98c-1.323,1.073,0.394,3.255,1.815,2.352
		c1.446,1.156,2.892,2.311,4.338,3.466c0.06,1.437-0.253,2.766-0.942,3.987c-0.272,0.576-1.752,3.432-2.732,3.798
		c-0.551-0.292-1.225-0.293-1.712,0.274l-0.189,0.22C200.795,100.459,200.769,100.532,200.729,100.59z"/>
</g>
<g>
</g>
<g>
</g>
<g>
</g>
<g>
</g>
<g>
</g>
<g>
</g>
<g>
</g>
<g>
</g>
<g>
</g>
<g>
</g>
<g>
</g>
<g>
</g>
<g>
</g>
<g>
</g>
<g>
</g>
</svg>
