<?xml version="1.0" encoding="iso-8859-1"?>
<!-- Generator: Adobe Illustrator 16.0.0, SVG Export Plug-In . SVG Version: 6.00 Build 0)  -->
<!DOCTYPE svg PUBLIC "-//W3C//DTD SVG 1.1//EN" "http://www.w3.org/Graphics/SVG/1.1/DTD/svg11.dtd">
<svg version="1.1" id="Capa_1" xmlns="http://www.w3.org/2000/svg" xmlns:xlink="http://www.w3.org/1999/xlink" x="0px" y="0px"
	 width="144.265px" height="144.264px" viewBox="0 0 144.265 144.264" style="enable-background:new 0 0 144.265 144.264;"
	 xml:space="preserve">
<g>
	<path d="M119.591,77.625c-7.854-3.251-15.253-2.728-21.117,1.291v-3.35c1.084,0.195,2.326,0.366,3.745,0.366
		c2.819,0,5.321-0.609,7.423-1.803c6.18-3.504,7.909-11.578,7.971-11.926c0.304-1.522-0.549-3.044-2.004-3.562
		c-0.335-0.113-3.258-1.121-6.911-1.121c-2.813,0-5.315,0.597-7.416,1.787c-1.084,0.612-1.974,1.392-2.802,2.22v-4.433
		c0-1.721-1.4-3.118-3.117-3.118s-3.118,1.397-3.118,3.118v21.809c-2.788-1.9-5.918-2.996-9.292-3.289V60.027
		c0-2.402-0.414-4.576-1.022-6.646c3.057-3.604,4.847-8.15,4.847-12.927c0-10.495-8.123-19.035-18.389-19.896
		c-0.073-5.742-4.433-9.459-11.18-9.459H50.96v-7.98C50.96,1.397,49.562,0,47.842,0c-1.714,0-3.118,1.397-3.118,3.118v7.98H34.653
		c-6.795,0-11.192,3.76-11.192,9.578v4.838c0,3.681,1.766,6.521,4.777,8.126v4.725c-12.06,2.362-19.33,10.163-19.33,21.662v61.756
		c0,13.878,10.477,22.481,27.337,22.481h19.367c8.099,0,14.845-2.167,19.628-5.979c4.534,3.69,9.356,5.979,13.966,5.979
		c1.741,0,3.416-0.316,4.95-0.95c0.396-0.164,0.792-0.353,1.188-0.572c0.384,0.22,0.779,0.402,1.176,0.561
		c1.546,0.651,3.221,0.962,4.969,0.962c12.33,0,26.293-16.452,31.59-31.821C138.705,96.191,133.797,83.507,119.591,77.625z
		 M104.35,64.746c1.583-0.892,4.074-1.129,6.156-0.874c-0.815,1.784-2.106,3.793-3.934,4.834c-1.163,0.655-2.631,0.983-4.354,0.983
		c-0.64,0-1.242-0.042-1.803-0.113C101.184,67.864,102.432,65.833,104.35,64.746z M68.269,26.78
		c6.884,0.786,12.272,6.585,12.272,13.673c0,2.302-0.646,4.515-1.692,6.503c-3.304-4.363-8.546-7.282-15.211-8.592V33.64
		C66.28,32.23,67.894,29.834,68.269,26.78z M29.69,20.676c0-2.219,1.672-3.343,4.944-3.343h22.555c3.285,0,4.957,1.124,4.957,3.343
		v4.838c0,2.213-1.671,3.343-4.957,3.343H34.635c-3.272,0-4.944-1.124-4.944-3.343V20.676z M34.461,35.08
		c0.061,0,0.119,0.012,0.173,0.012h22.555c0.076,0,0.131-0.012,0.186-0.012v2.576c-0.603-0.021-1.16-0.119-1.769-0.119H36.233
		c-0.624,0-1.172,0.091-1.772,0.119V35.08z M36.233,138.035c-6.348,0-21.108-1.583-21.108-16.252V92.05h19.378
		c1.724,0,3.118-1.407,3.118-3.118c0-1.724-1.394-3.118-3.118-3.118H15.125v-8.385h23.626c1.714,0,3.118-1.4,3.118-3.117
		c0-1.72-1.404-3.117-3.118-3.117H15.125v-8.388h30.278c1.72,0,3.118-1.394,3.118-3.118c0-1.72-1.397-3.118-3.118-3.118H15.588
		C17.79,45.2,30.434,43.766,36.233,43.766h19.373c6.348,0,21.105,1.583,21.105,16.255V75.98c-1.839,0.354-3.702,0.865-5.599,1.645
		c-14.185,5.883-19.105,18.578-13.5,34.818c2.64,7.647,7.408,15.551,13.077,21.567c-3.654,2.582-8.83,4.019-15.077,4.019H36.239
		v0.006H36.233z M127.208,110.421c-5.443,15.758-20.203,30.481-28.314,27.133c-0.463-0.195-0.986-0.523-1.595-1.011
		c-0.579-0.45-1.255-0.664-1.942-0.664c-0.676,0-1.358,0.214-1.931,0.651c-0.646,0.5-1.169,0.828-1.656,1.023
		c-7.928,3.275-22.834-11.326-28.278-27.133c-5.724-16.551,2.277-23.834,9.996-27.024c7.979-3.3,14.672-1.753,19.336,4.737
		c0.042,0.061,0.115,0.086,0.152,0.135c0.207,0.255,0.45,0.45,0.718,0.633c0.128,0.073,0.207,0.158,0.329,0.219
		c0.402,0.184,0.847,0.316,1.334,0.316c0.469,0,0.907-0.133,1.327-0.316c0.115-0.061,0.201-0.146,0.316-0.219
		c0.286-0.171,0.523-0.378,0.73-0.633c0.049-0.062,0.116-0.074,0.152-0.135c4.652-6.479,11.362-8.025,19.321-4.725
		C124.919,86.582,132.92,93.865,127.208,110.421z"/>
</g>
<g>
</g>
<g>
</g>
<g>
</g>
<g>
</g>
<g>
</g>
<g>
</g>
<g>
</g>
<g>
</g>
<g>
</g>
<g>
</g>
<g>
</g>
<g>
</g>
<g>
</g>
<g>
</g>
<g>
</g>
</svg>
